<svg version="1.0" xmlns="http://www.w3.org/2000/svg"  viewBox="0 0 511.763679 511.525463"  ><g transform="translate(-184.118160,633.793261) scale(0.100000,-0.100000)" fill="#000000" stroke="none"><path fill="currentColor" d="M5408 6329 c-235 -27 -482 -129 -678 -280 -41 -31 -276 -259 -522 -506 -441 -443 -447 -449 -463 -507 -54 -188 91 -369 283 -354 32 2 75 13 97 23 27 12 190 167 485 460 251 249 469 457 500 477 173 112 341 153 549 136 270 -22 523 -192 650 -437 143 -277 121 -615 -57 -866 -19 -27 -232 -248 -472 -490 -290 -292 -443 -453 -455 -480 -10 -22 -21 -65 -23 -97 -15 -192 166 -337 354 -283 58 16 64 22 507 463 247 246 475 481 506 522 160 209 250 430 280 685 49 412 -91 824 -383 1123 -301 310 -725 460 -1158 411z"/><path fill="currentColor" d="M5080 4818 c-51 -19 -114 -79 -876 -842 -783 -782 -823 -824 -843 -879 -40 -109 -17 -217 62 -295 80 -79 186 -100 294 -61 55 20 97 60 879 843 783 782 823 824 843 879 40 109 17 217 -62 295 -80 78 -189 101 -297 60z"/><path fill="currentColor" d="M3135 4434 c-46 -14 -89 -54 -498 -462 -247 -246 -475 -481 -506 -522 -160 -209 -250 -430 -280 -685 -49 -412 91 -824 383 -1123 490 -504 1277 -561 1836 -131 41 31 276 259 521 506 488 490 474 471 473 593 -1 196 -210 328 -389 245 -27 -12 -190 -167 -485 -460 -251 -249 -469 -457 -500 -477 -173 -112 -341 -153 -549 -136 -271 22 -523 192 -650 438 -143 276 -121 615 57 865 19 28 232 248 472 490 290 292 443 453 455 480 10 22 21 65 23 97 15 194 -175 341 -363 282z"/></g></svg>